<svg width="37" height="37" viewBox="0 0 37 37" fill="none" xmlns="http://www.w3.org/2000/svg">
<g id="Icon">
<path d="M18.3333 10.8333C18.3333 8.53215 20.1988 6.66667 22.5 6.66667C24.8012 6.66667 26.6667 8.53215 26.6667 10.8333C26.6667 13.1345 24.8012 15 22.5 15C20.1988 15 18.3333 13.1345 18.3333 10.8333Z" fill="#C8C8C8"/>
<path fill-rule="evenodd" clip-rule="evenodd" d="M14.9271 2.80596e-07C12.6553 -1.30311e-05 10.8486 -2.37549e-05 9.39096 0.119071C7.8983 0.241027 6.62551 0.496129 5.4601 1.08994C3.57847 2.04867 2.04867 3.57847 1.08994 5.4601C0.496129 6.62551 0.241027 7.8983 0.119071 9.39096C-2.37549e-05 10.8486 -1.30311e-05 12.6553 2.80597e-07 14.9271V21.7396C-1.30311e-05 24.0113 -2.37549e-05 25.8181 0.119071 27.2757C0.241027 28.7684 0.496129 30.0412 1.08994 31.2066C2.04867 33.0882 3.57847 34.618 5.4601 35.5767C6.62551 36.1705 7.8983 36.4256 9.39096 36.5476C10.8486 36.6667 12.6552 36.6667 14.9269 36.6667H21.7396C24.0113 36.6667 25.8181 36.6667 27.2757 36.5476C28.7684 36.4256 30.0412 36.1705 31.2066 35.5767C33.0882 34.618 34.618 33.0882 35.5767 31.2066C36.1705 30.0412 36.4256 28.7684 36.5476 27.2757C36.6667 25.8181 36.6667 24.0114 36.6667 21.7398V14.927C36.6667 12.6554 36.6667 10.8486 36.5476 9.39096C36.4256 7.8983 36.1705 6.62551 35.5767 5.4601C34.618 3.57847 33.0882 2.04867 31.2066 1.08994C30.0412 0.496129 28.7684 0.241027 27.2757 0.119071C25.8181 -2.37549e-05 24.0113 -1.30311e-05 21.7396 2.80596e-07H14.9271ZM6.9734 4.05996C7.59058 3.74549 8.37587 3.54645 9.6624 3.44133C10.9684 3.33463 12.6389 3.33333 15 3.33333H21.6667C24.0277 3.33333 25.6983 3.33463 27.0043 3.44133C28.2908 3.54645 29.0761 3.74549 29.6933 4.05996C30.9477 4.69911 31.9676 5.71898 32.6067 6.9734C32.9212 7.59058 33.1202 8.37587 33.2253 9.6624C33.332 10.9684 33.3333 12.6389 33.3333 15V21.6667C33.3333 22.264 33.3333 22.8172 33.3314 23.3314L30.6904 20.6904C29.3886 19.3886 27.2781 19.3886 25.9763 20.6904L22.2559 24.4107C21.9305 24.7362 21.4028 24.7362 21.0774 24.4107L10.6904 14.0237C9.38861 12.7219 7.27806 12.7219 5.97631 14.0237L3.33333 16.6667V15C3.33333 12.6389 3.33463 10.9684 3.44133 9.6624C3.54645 8.37587 3.74549 7.59058 4.05996 6.9734C4.69911 5.71898 5.71898 4.69911 6.9734 4.05996Z" fill="#C8C8C8"/>
</g>
</svg>
